<svg width="231" height="24" viewBox="0 0 231 24" fill="none" xmlns="http://www.w3.org/2000/svg">
<path d="M-0.000355005 23.2729V0.000221252H9.70419C11.4466 0.000221252 12.9049 0.246433 14.0792 0.738857C15.261 1.23128 16.1474 1.92068 16.7383 2.80704C17.3368 3.6934 17.636 4.71992 17.636 5.88659C17.636 6.77295 17.4504 7.56462 17.0792 8.26159C16.708 8.95098 16.1966 9.52295 15.5451 9.97749C14.8936 10.432 14.1398 10.7502 13.2837 10.932V11.1593C14.2231 11.2048 15.0906 11.4586 15.886 11.9207C16.689 12.3828 17.333 13.0267 17.8178 13.8525C18.3027 14.6707 18.5451 15.6404 18.5451 16.7616C18.5451 18.0116 18.2269 19.129 17.5906 20.1139C16.9542 21.0911 16.0337 21.8639 14.8292 22.432C13.6246 22.9926 12.1625 23.2729 10.4428 23.2729H-0.000355005ZM5.62465 18.7389H9.10192C10.3216 18.7389 11.2193 18.5078 11.7951 18.0457C12.3784 17.5836 12.6701 16.9396 12.6701 16.1139C12.6701 15.5154 12.5299 15.0002 12.2496 14.5684C11.9693 14.129 11.5716 13.7919 11.0565 13.557C10.5413 13.3146 9.92389 13.1934 9.20419 13.1934H5.62465V18.7389ZM5.62465 9.5684H8.73828C9.35192 9.5684 9.89737 9.46613 10.3746 9.26159C10.8519 9.05704 11.2231 8.76159 11.4883 8.37522C11.761 7.98886 11.8974 7.52295 11.8974 6.97749C11.8974 6.19719 11.6209 5.58355 11.0678 5.13659C10.5148 4.68962 9.76858 4.46613 8.82919 4.46613H5.62465V9.5684ZM29.4837 23.2729H23.4383L31.2906 0.000221252H38.7792L46.6315 23.2729H40.586L35.1201 5.86386H34.9383L29.4837 23.2729ZM28.6769 14.1139H41.3133V18.3866H28.6769V14.1139ZM48.8031 0.000221252H55.0871L60.0076 9.73886H60.2121L65.1326 0.000221252H71.4167L62.9053 15.5002V23.2729H57.3144V15.5002L48.8031 0.000221252ZM106.856 0.000221252V23.2729H102.084L92.8224 9.84113H92.6746V23.2729H87.0496V0.000221252H91.8906L101.05 13.4093H101.243V0.000221252H106.856ZM118.627 23.2729H112.582L120.434 0.000221252H127.923L135.775 23.2729H129.73L124.264 5.86386H124.082L118.627 23.2729ZM117.821 14.1139H130.457V18.3866H117.821V14.1139ZM137.813 4.5684V0.000221252H157.484V4.5684H150.427V23.2729H144.881V4.5684H137.813ZM177.51 0.000221252H183.124V15.0116C183.124 16.7464 182.711 18.2578 181.885 19.5457C181.06 20.826 179.908 21.8184 178.431 22.5229C176.954 23.2199 175.238 23.5684 173.283 23.5684C171.306 23.5684 169.579 23.2199 168.101 22.5229C166.624 21.8184 165.476 20.826 164.658 19.5457C163.84 18.2578 163.431 16.7464 163.431 15.0116V0.000221252H169.056V14.5229C169.056 15.326 169.23 16.0419 169.579 16.6707C169.935 17.2995 170.431 17.7919 171.067 18.1479C171.704 18.504 172.442 18.682 173.283 18.682C174.124 18.682 174.859 18.504 175.488 18.1479C176.124 17.7919 176.62 17.2995 176.976 16.6707C177.332 16.0419 177.51 15.326 177.51 14.5229V0.000221252ZM189.85 23.2729V0.000221252H199.463C201.206 0.000221252 202.709 0.314615 203.975 0.943403C205.247 1.56462 206.228 2.45855 206.918 3.62522C207.607 4.78431 207.952 6.15931 207.952 7.75022C207.952 9.36386 207.6 10.7351 206.895 11.8639C206.191 12.9851 205.191 13.8411 203.895 14.432C202.6 15.0154 201.066 15.307 199.293 15.307H193.213V10.8752H198.247C199.096 10.8752 199.804 10.7654 200.372 10.5457C200.948 10.3184 201.384 9.97749 201.679 9.52295C201.975 9.06083 202.122 8.46992 202.122 7.75022C202.122 7.03052 201.975 6.43583 201.679 5.96613C201.384 5.48886 200.948 5.1328 200.372 4.89795C199.797 4.65553 199.088 4.53431 198.247 4.53431H195.475V23.2729H189.85ZM202.952 12.6366L208.747 23.2729H202.611L196.929 12.6366H202.952ZM214.237 23.2729V0.000221252H230.464V4.5684H219.862V9.34113H229.635V13.9207H219.862V18.7048H230.464V23.2729H214.237Z" fill="white"/>
</svg>
