<svg width="236" height="53" viewBox="0 0 236 53" fill="none" xmlns="http://www.w3.org/2000/svg">
<path d="M1.76136 31V7.72727H11.4659C13.2083 7.72727 14.6667 7.97348 15.8409 8.46591C17.0227 8.95833 17.9091 9.64773 18.5 10.5341C19.0985 11.4205 19.3977 12.447 19.3977 13.6136C19.3977 14.5 19.2121 15.2917 18.8409 15.9886C18.4697 16.678 17.9583 17.25 17.3068 17.7045C16.6553 18.1591 15.9015 18.4773 15.0455 18.6591V18.8864C15.9848 18.9318 16.8523 19.1856 17.6477 19.6477C18.4508 20.1098 19.0947 20.7538 19.5795 21.5795C20.0644 22.3977 20.3068 23.3674 20.3068 24.4886C20.3068 25.7386 19.9886 26.8561 19.3523 27.8409C18.7159 28.8182 17.7955 29.5909 16.5909 30.1591C15.3864 30.7197 13.9242 31 12.2045 31H1.76136ZM7.38636 26.4659H10.8636C12.0833 26.4659 12.9811 26.2348 13.5568 25.7727C14.1402 25.3106 14.4318 24.6667 14.4318 23.8409C14.4318 23.2424 14.2917 22.7273 14.0114 22.2955C13.7311 21.8561 13.3333 21.5189 12.8182 21.2841C12.303 21.0417 11.6856 20.9205 10.9659 20.9205H7.38636V26.4659ZM7.38636 17.2955H10.5C11.1136 17.2955 11.6591 17.1932 12.1364 16.9886C12.6136 16.7841 12.9848 16.4886 13.25 16.1023C13.5227 15.7159 13.6591 15.25 13.6591 14.7045C13.6591 13.9242 13.3826 13.3106 12.8295 12.8636C12.2765 12.4167 11.5303 12.1932 10.5909 12.1932H7.38636V17.2955ZM31.2455 31H25.2L33.0523 7.72727H40.5409L48.3932 31H42.3477L36.8818 13.5909H36.7L31.2455 31ZM30.4386 21.8409H43.075V26.1136H30.4386V21.8409ZM50.5648 7.72727H56.8489L61.7693 17.4659H61.9739L66.8943 7.72727H73.1784L64.667 23.2273V31H59.0761V23.2273L50.5648 7.72727ZM108.618 7.72727V31H103.845L94.5841 17.5682H94.4364V31H88.8114V7.72727H93.6523L102.811 21.1364H103.005V7.72727H108.618ZM120.389 31H114.344L122.196 7.72727H129.685L137.537 31H131.491L126.026 13.5909H125.844L120.389 31ZM119.582 21.8409H132.219V26.1136H119.582V21.8409ZM139.575 12.2955V7.72727H159.245V12.2955H152.189V31H146.643V12.2955H139.575ZM179.272 7.72727H184.886V22.7386C184.886 24.4735 184.473 25.9848 183.647 27.2727C182.821 28.553 181.67 29.5455 180.193 30.25C178.715 30.947 176.999 31.2955 175.045 31.2955C173.068 31.2955 171.34 30.947 169.863 30.25C168.386 29.5455 167.238 28.553 166.42 27.2727C165.602 25.9848 165.193 24.4735 165.193 22.7386V7.72727H170.818V22.25C170.818 23.053 170.992 23.7689 171.34 24.3977C171.696 25.0265 172.193 25.5189 172.829 25.875C173.465 26.2311 174.204 26.4091 175.045 26.4091C175.886 26.4091 176.621 26.2311 177.249 25.875C177.886 25.5189 178.382 25.0265 178.738 24.3977C179.094 23.7689 179.272 23.053 179.272 22.25V7.72727ZM191.611 31V7.72727H201.225C202.967 7.72727 204.471 8.04167 205.736 8.67045C207.009 9.29167 207.99 10.1856 208.68 11.3523C209.369 12.5114 209.714 13.8864 209.714 15.4773C209.714 17.0909 209.361 18.4621 208.657 19.5909C207.952 20.7121 206.952 21.5682 205.657 22.1591C204.361 22.7424 202.827 23.0341 201.055 23.0341H194.975V18.6023H200.009C200.858 18.6023 201.566 18.4924 202.134 18.2727C202.71 18.0455 203.145 17.7045 203.441 17.25C203.736 16.7879 203.884 16.197 203.884 15.4773C203.884 14.7576 203.736 14.1629 203.441 13.6932C203.145 13.2159 202.71 12.8598 202.134 12.625C201.558 12.3826 200.85 12.2614 200.009 12.2614H197.236V31H191.611ZM204.714 20.3636L210.509 31H204.373L198.691 20.3636H204.714ZM215.999 31V7.72727H232.226V12.2955H221.624V17.0682H231.397V21.6477H221.624V26.4318H232.226V31H215.999Z" fill="white"/>
<path d="M9.30682 39.8182V50H8.11364L2.56534 42.0057H2.46591V50H1.23295V39.8182H2.42614L7.99432 47.8324H8.09375V39.8182H9.30682ZM14.7172 50.1591C14.0278 50.1591 13.4229 49.995 12.9025 49.6669C12.3855 49.3388 11.9811 48.8797 11.6895 48.2898C11.4011 47.6998 11.2569 47.0104 11.2569 46.2216C11.2569 45.4261 11.4011 44.7318 11.6895 44.1385C11.9811 43.5452 12.3855 43.0845 12.9025 42.7564C13.4229 42.4283 14.0278 42.2642 14.7172 42.2642C15.4065 42.2642 16.0098 42.4283 16.5268 42.7564C17.0472 43.0845 17.4515 43.5452 17.7399 44.1385C18.0315 44.7318 18.1774 45.4261 18.1774 46.2216C18.1774 47.0104 18.0315 47.6998 17.7399 48.2898C17.4515 48.8797 17.0472 49.3388 16.5268 49.6669C16.0098 49.995 15.4065 50.1591 14.7172 50.1591ZM14.7172 49.1051C15.2408 49.1051 15.6717 48.9709 16.0098 48.7024C16.3478 48.4339 16.5981 48.081 16.7605 47.6435C16.9229 47.206 17.0041 46.732 17.0041 46.2216C17.0041 45.7112 16.9229 45.2356 16.7605 44.7947C16.5981 44.3539 16.3478 43.9976 16.0098 43.7259C15.6717 43.4541 15.2408 43.3182 14.7172 43.3182C14.1935 43.3182 13.7626 43.4541 13.4245 43.7259C13.0865 43.9976 12.8362 44.3539 12.6738 44.7947C12.5114 45.2356 12.4302 45.7112 12.4302 46.2216C12.4302 46.732 12.5114 47.206 12.6738 47.6435C12.8362 48.081 13.0865 48.4339 13.4245 48.7024C13.7626 48.9709 14.1935 49.1051 14.7172 49.1051ZM21.1417 45.4062V50H19.9684V42.3636H21.1019V43.5568H21.2013C21.3803 43.169 21.6521 42.8575 22.0167 42.6222C22.3813 42.3835 22.8519 42.2642 23.4286 42.2642C23.9457 42.2642 24.3981 42.3703 24.7859 42.5824C25.1737 42.7912 25.4753 43.1094 25.6907 43.5369C25.9061 43.9612 26.0138 44.4981 26.0138 45.1477V50H24.8406V45.2273C24.8406 44.6274 24.6848 44.16 24.3732 43.8253C24.0617 43.4872 23.6341 43.3182 23.0906 43.3182C22.716 43.3182 22.3813 43.3994 22.0863 43.5618C21.7946 43.7242 21.5643 43.9612 21.3952 44.2727C21.2262 44.5843 21.1417 44.9621 21.1417 45.4062ZM28.1578 52.8636V42.3636H29.2914V43.5767H29.4306C29.5167 43.4441 29.6361 43.2751 29.7885 43.0696C29.9443 42.8608 30.1664 42.6752 30.4547 42.5128C30.7464 42.3471 31.1408 42.2642 31.638 42.2642C32.281 42.2642 32.8477 42.425 33.3382 42.7464C33.8288 43.0679 34.2116 43.5237 34.4867 44.1136C34.7618 44.7036 34.8993 45.3996 34.8993 46.2017C34.8993 47.0104 34.7618 47.7114 34.4867 48.3047C34.2116 48.8946 33.8304 49.352 33.3432 49.6768C32.856 49.9983 32.2942 50.1591 31.6578 50.1591C31.1673 50.1591 30.7746 50.0779 30.4796 49.9155C30.1846 49.7498 29.9576 49.5625 29.7985 49.3537C29.6394 49.1416 29.5167 48.9659 29.4306 48.8267H29.3311V52.8636H28.1578ZM29.3113 46.1818C29.3113 46.7585 29.3958 47.2673 29.5648 47.7081C29.7338 48.1456 29.9808 48.4886 30.3056 48.7372C30.6304 48.9825 31.0281 49.1051 31.4988 49.1051C31.9893 49.1051 32.3986 48.9759 32.7267 48.7173C33.0582 48.4555 33.3068 48.1042 33.4725 47.6634C33.6415 47.2192 33.726 46.7254 33.726 46.1818C33.726 45.6449 33.6432 45.161 33.4775 44.7301C33.315 44.2959 33.0681 43.9529 32.7367 43.701C32.4086 43.4458 31.9959 43.3182 31.4988 43.3182C31.0215 43.3182 30.6204 43.4392 30.2956 43.6811C29.9708 43.9197 29.7256 44.2545 29.5598 44.6854C29.3941 45.1129 29.3113 45.6117 29.3113 46.1818ZM36.6891 50V42.3636H37.8226V43.517H37.9022C38.0414 43.1392 38.2933 42.8326 38.6578 42.5973C39.0224 42.362 39.4334 42.2443 39.8908 42.2443C39.977 42.2443 40.0847 42.246 40.214 42.2493C40.3432 42.2526 40.441 42.2576 40.5073 42.2642V43.4574C40.4675 43.4474 40.3764 43.4325 40.2338 43.4126C40.0946 43.3894 39.9471 43.3778 39.7914 43.3778C39.4202 43.3778 39.0887 43.4557 38.7971 43.6115C38.5087 43.764 38.28 43.9761 38.111 44.2479C37.9453 44.5163 37.8624 44.8229 37.8624 45.1676V50H36.6891ZM44.7679 50.1591C44.0785 50.1591 43.4737 49.995 42.9533 49.6669C42.4363 49.3388 42.0319 48.8797 41.7402 48.2898C41.4519 47.6998 41.3077 47.0104 41.3077 46.2216C41.3077 45.4261 41.4519 44.7318 41.7402 44.1385C42.0319 43.5452 42.4363 43.0845 42.9533 42.7564C43.4737 42.4283 44.0785 42.2642 44.7679 42.2642C45.4573 42.2642 46.0605 42.4283 46.5776 42.7564C47.098 43.0845 47.5023 43.5452 47.7907 44.1385C48.0823 44.7318 48.2282 45.4261 48.2282 46.2216C48.2282 47.0104 48.0823 47.6998 47.7907 48.2898C47.5023 48.8797 47.098 49.3388 46.5776 49.6669C46.0605 49.995 45.4573 50.1591 44.7679 50.1591ZM44.7679 49.1051C45.2916 49.1051 45.7225 48.9709 46.0605 48.7024C46.3986 48.4339 46.6489 48.081 46.8113 47.6435C46.9737 47.206 47.0549 46.732 47.0549 46.2216C47.0549 45.7112 46.9737 45.2356 46.8113 44.7947C46.6489 44.3539 46.3986 43.9976 46.0605 43.7259C45.7225 43.4541 45.2916 43.3182 44.7679 43.3182C44.2443 43.3182 43.8134 43.4541 43.4753 43.7259C43.1373 43.9976 42.887 44.3539 42.7246 44.7947C42.5622 45.2356 42.481 45.7112 42.481 46.2216C42.481 46.732 42.5622 47.206 42.7246 47.6435C42.887 48.081 43.1373 48.4339 43.4753 48.7024C43.8134 48.9709 44.2443 49.1051 44.7679 49.1051ZM53.4197 42.3636V43.358H49.3033V42.3636H53.4197ZM50.5362 50V41.3097C50.5362 40.8722 50.639 40.5076 50.8445 40.2159C51.05 39.9242 51.3168 39.7055 51.6449 39.5597C51.973 39.4138 52.3194 39.3409 52.6839 39.3409C52.9723 39.3409 53.2076 39.3641 53.3899 39.4105C53.5722 39.4569 53.7081 39.5 53.7976 39.5398L53.4595 40.554C53.3999 40.5341 53.317 40.5092 53.2109 40.4794C53.1082 40.4496 52.9723 40.4347 52.8033 40.4347C52.4155 40.4347 52.1354 40.5324 51.9631 40.728C51.794 40.9235 51.7095 41.2102 51.7095 41.5881V50H50.5362ZM55.0641 50V42.3636H56.2374V50H55.0641ZM55.6607 41.0909C55.432 41.0909 55.2348 41.013 55.0691 40.8572C54.9067 40.7015 54.8255 40.5142 54.8255 40.2955C54.8255 40.0767 54.9067 39.8894 55.0691 39.7337C55.2348 39.5779 55.432 39.5 55.6607 39.5C55.8894 39.5 56.0849 39.5779 56.2473 39.7337C56.4131 39.8894 56.4959 40.0767 56.4959 40.2955C56.4959 40.5142 56.4131 40.7015 56.2473 40.8572C56.0849 41.013 55.8894 41.0909 55.6607 41.0909ZM61.7074 42.3636V43.358H57.75V42.3636H61.7074ZM58.9034 40.5341H60.0767V47.8125C60.0767 48.1439 60.1248 48.3925 60.2209 48.5582C60.3203 48.7206 60.4463 48.83 60.5987 48.8864C60.7545 48.9394 60.9186 48.9659 61.0909 48.9659C61.2202 48.9659 61.3262 48.9593 61.4091 48.946C61.492 48.9295 61.5582 48.9162 61.608 48.9062L61.8466 49.9602C61.767 49.9901 61.656 50.0199 61.5135 50.0497C61.371 50.0829 61.1903 50.0994 60.9716 50.0994C60.6402 50.0994 60.3153 50.0282 59.9972 49.8857C59.6823 49.7431 59.4205 49.526 59.2116 49.2344C59.0062 48.9427 58.9034 48.5748 58.9034 48.1307V40.5341ZM67.5689 50V39.8182H73.7138V40.9119H68.8018V44.3523H73.3956V45.446H68.8018V48.9062H73.7933V50H67.5689ZM76.9503 45.4062V50H75.777V42.3636H76.9105V43.5568H77.0099C77.1889 43.169 77.4607 42.8575 77.8253 42.6222C78.1899 42.3835 78.6605 42.2642 79.2372 42.2642C79.7543 42.2642 80.2067 42.3703 80.5945 42.5824C80.9822 42.7912 81.2839 43.1094 81.4993 43.5369C81.7147 43.9612 81.8224 44.4981 81.8224 45.1477V50H80.6491V45.2273C80.6491 44.6274 80.4934 44.16 80.1818 43.8253C79.8703 43.4872 79.4427 43.3182 78.8991 43.3182C78.5246 43.3182 78.1899 43.3994 77.8949 43.5618C77.6032 43.7242 77.3729 43.9612 77.2038 44.2727C77.0348 44.5843 76.9503 44.9621 76.9503 45.4062ZM89.9373 42.3636L87.1135 50H85.9203L83.0964 42.3636H84.3691L86.4771 48.4489H86.5566L88.6646 42.3636H89.9373ZM91.486 50V42.3636H92.6593V50H91.486ZM92.0826 41.0909C91.8539 41.0909 91.6567 41.013 91.4909 40.8572C91.3285 40.7015 91.2473 40.5142 91.2473 40.2955C91.2473 40.0767 91.3285 39.8894 91.4909 39.7337C91.6567 39.5779 91.8539 39.5 92.0826 39.5C92.3113 39.5 92.5068 39.5779 92.6692 39.7337C92.8349 39.8894 92.9178 40.0767 92.9178 40.2955C92.9178 40.5142 92.8349 40.7015 92.6692 40.8572C92.5068 41.013 92.3113 41.0909 92.0826 41.0909ZM94.8082 50V42.3636H95.9418V43.517H96.0213C96.1605 43.1392 96.4124 42.8326 96.777 42.5973C97.1416 42.362 97.5526 42.2443 98.0099 42.2443C98.0961 42.2443 98.2038 42.246 98.3331 42.2493C98.4624 42.2526 98.5601 42.2576 98.6264 42.2642V43.4574C98.5866 43.4474 98.4955 43.4325 98.353 43.4126C98.2138 43.3894 98.0663 43.3778 97.9105 43.3778C97.5393 43.3778 97.2079 43.4557 96.9162 43.6115C96.6278 43.764 96.3991 43.9761 96.2301 44.2479C96.0644 44.5163 95.9815 44.8229 95.9815 45.1676V50H94.8082ZM102.887 50.1591C102.198 50.1591 101.593 49.995 101.072 49.6669C100.555 49.3388 100.151 48.8797 99.8594 48.2898C99.571 47.6998 99.4268 47.0104 99.4268 46.2216C99.4268 45.4261 99.571 44.7318 99.8594 44.1385C100.151 43.5452 100.555 43.0845 101.072 42.7564C101.593 42.4283 102.198 42.2642 102.887 42.2642C103.576 42.2642 104.18 42.4283 104.697 42.7564C105.217 43.0845 105.621 43.5452 105.91 44.1385C106.201 44.7318 106.347 45.4261 106.347 46.2216C106.347 47.0104 106.201 47.6998 105.91 48.2898C105.621 48.8797 105.217 49.3388 104.697 49.6669C104.18 49.995 103.576 50.1591 102.887 50.1591ZM102.887 49.1051C103.411 49.1051 103.842 48.9709 104.18 48.7024C104.518 48.4339 104.768 48.081 104.93 47.6435C105.093 47.206 105.174 46.732 105.174 46.2216C105.174 45.7112 105.093 45.2356 104.93 44.7947C104.768 44.3539 104.518 43.9976 104.18 43.7259C103.842 43.4541 103.411 43.3182 102.887 43.3182C102.363 43.3182 101.933 43.4541 101.594 43.7259C101.256 43.9976 101.006 44.3539 100.844 44.7947C100.681 45.2356 100.6 45.7112 100.6 46.2216C100.6 46.732 100.681 47.206 100.844 47.6435C101.006 48.081 101.256 48.4339 101.594 48.7024C101.933 48.9709 102.363 49.1051 102.887 49.1051ZM109.312 45.4062V50H108.138V42.3636H109.272V43.5568H109.371C109.55 43.169 109.822 42.8575 110.187 42.6222C110.551 42.3835 111.022 42.2642 111.599 42.2642C112.116 42.2642 112.568 42.3703 112.956 42.5824C113.344 42.7912 113.645 43.1094 113.861 43.5369C114.076 43.9612 114.184 44.4981 114.184 45.1477V50H113.01V45.2273C113.01 44.6274 112.855 44.16 112.543 43.8253C112.232 43.4872 111.804 43.3182 111.26 43.3182C110.886 43.3182 110.551 43.3994 110.256 43.5618C109.965 43.7242 109.734 43.9612 109.565 44.2727C109.396 44.5843 109.312 44.9621 109.312 45.4062ZM116.328 50V42.3636H117.461V43.5568H117.561C117.72 43.1491 117.977 42.8326 118.331 42.6072C118.686 42.3786 119.112 42.2642 119.609 42.2642C120.113 42.2642 120.532 42.3786 120.867 42.6072C121.205 42.8326 121.468 43.1491 121.657 43.5568H121.737C121.932 43.1624 122.226 42.8492 122.617 42.6172C123.008 42.3819 123.477 42.2642 124.024 42.2642C124.707 42.2642 125.265 42.478 125.699 42.9055C126.133 43.3298 126.35 43.991 126.35 44.8892V50H125.177V44.8892C125.177 44.3258 125.023 43.9231 124.715 43.6811C124.407 43.4392 124.044 43.3182 123.626 43.3182C123.089 43.3182 122.673 43.4806 122.378 43.8054C122.083 44.1269 121.936 44.5346 121.936 45.0284V50H120.743V44.7699C120.743 44.3357 120.602 43.986 120.32 43.7209C120.038 43.4524 119.675 43.3182 119.231 43.3182C118.926 43.3182 118.641 43.3994 118.376 43.5618C118.114 43.7242 117.902 43.9496 117.74 44.2379C117.581 44.523 117.501 44.8527 117.501 45.2273V50H116.328ZM131.697 50.1591C130.962 50.1591 130.327 49.9967 129.793 49.6719C129.263 49.3438 128.854 48.8864 128.565 48.2997C128.28 47.7098 128.138 47.0237 128.138 46.2415C128.138 45.4593 128.28 44.7699 128.565 44.1733C128.854 43.5734 129.255 43.1061 129.768 42.7713C130.286 42.4332 130.889 42.2642 131.578 42.2642C131.976 42.2642 132.369 42.3305 132.756 42.4631C133.144 42.5956 133.497 42.8111 133.815 43.1094C134.134 43.4044 134.387 43.7955 134.576 44.2827C134.765 44.7699 134.859 45.3698 134.859 46.0824V46.5795H128.973V45.5653H133.666C133.666 45.1345 133.58 44.75 133.408 44.4119C133.239 44.0739 132.997 43.8071 132.682 43.6115C132.37 43.416 132.002 43.3182 131.578 43.3182C131.111 43.3182 130.706 43.4342 130.365 43.6662C130.027 43.8949 129.767 44.1932 129.585 44.5611C129.402 44.929 129.311 45.3234 129.311 45.7443V46.4205C129.311 46.9972 129.411 47.486 129.609 47.8871C129.812 48.2848 130.092 48.5881 130.45 48.7969C130.808 49.0024 131.223 49.1051 131.697 49.1051C132.006 49.1051 132.284 49.062 132.533 48.9759C132.785 48.8864 133.002 48.7538 133.184 48.5781C133.366 48.3991 133.507 48.1771 133.607 47.9119L134.74 48.2301C134.621 48.6146 134.42 48.9527 134.138 49.2443C133.857 49.5327 133.509 49.758 133.094 49.9205C132.68 50.0795 132.214 50.1591 131.697 50.1591ZM137.817 45.4062V50H136.644V42.3636H137.778V43.5568H137.877C138.056 43.169 138.328 42.8575 138.692 42.6222C139.057 42.3835 139.528 42.2642 140.104 42.2642C140.621 42.2642 141.074 42.3703 141.462 42.5824C141.849 42.7912 142.151 43.1094 142.366 43.5369C142.582 43.9612 142.69 44.4981 142.69 45.1477V50H141.516V45.2273C141.516 44.6274 141.361 44.16 141.049 43.8253C140.737 43.4872 140.31 43.3182 139.766 43.3182C139.392 43.3182 139.057 43.3994 138.762 43.5618C138.47 43.7242 138.24 43.9612 138.071 44.2727C137.902 44.5843 137.817 44.9621 137.817 45.4062ZM148.155 42.3636V43.358H144.197V42.3636H148.155ZM145.351 40.5341H146.524V47.8125C146.524 48.1439 146.572 48.3925 146.668 48.5582C146.768 48.7206 146.894 48.83 147.046 48.8864C147.202 48.9394 147.366 48.9659 147.538 48.9659C147.667 48.9659 147.773 48.9593 147.856 48.946C147.939 48.9295 148.006 48.9162 148.055 48.9062L148.294 49.9602C148.214 49.9901 148.103 50.0199 147.961 50.0497C147.818 50.0829 147.638 50.0994 147.419 50.0994C147.087 50.0994 146.763 50.0282 146.444 49.8857C146.13 49.7431 145.868 49.526 145.659 49.2344C145.453 48.9427 145.351 48.5748 145.351 48.1307V40.5341ZM152.167 50.179C151.683 50.179 151.244 50.0878 150.849 49.9055C150.455 49.7199 150.142 49.4531 149.91 49.1051C149.678 48.7538 149.562 48.3295 149.562 47.8324C149.562 47.3949 149.648 47.0402 149.82 46.7685C149.992 46.4934 150.223 46.2779 150.511 46.1222C150.8 45.9664 151.118 45.8504 151.466 45.7741C151.817 45.6946 152.17 45.6316 152.525 45.5852C152.989 45.5256 153.365 45.4808 153.653 45.451C153.945 45.4179 154.157 45.3632 154.29 45.2869C154.425 45.2107 154.493 45.0781 154.493 44.8892V44.8494C154.493 44.3589 154.359 43.9777 154.091 43.706C153.826 43.4342 153.423 43.2983 152.883 43.2983C152.323 43.2983 151.883 43.4209 151.565 43.6662C151.247 43.9115 151.023 44.1733 150.894 44.4517L149.78 44.054C149.979 43.59 150.244 43.2287 150.576 42.9702C150.911 42.7083 151.275 42.526 151.67 42.4233C152.067 42.3172 152.458 42.2642 152.843 42.2642C153.088 42.2642 153.37 42.294 153.688 42.3537C154.01 42.41 154.319 42.5277 154.618 42.7067C154.919 42.8857 155.17 43.1558 155.368 43.517C155.567 43.8783 155.667 44.3622 155.667 44.9688V50H154.493V48.9659H154.434C154.354 49.1316 154.222 49.3089 154.036 49.4979C153.85 49.6868 153.604 49.8475 153.295 49.9801C152.987 50.1127 152.611 50.179 152.167 50.179ZM152.346 49.125C152.81 49.125 153.201 49.0339 153.519 48.8516C153.84 48.6693 154.082 48.4339 154.245 48.1456C154.411 47.8572 154.493 47.554 154.493 47.2358V46.1619C154.444 46.2216 154.334 46.2763 154.165 46.326C154 46.3724 153.807 46.4138 153.589 46.4503C153.373 46.4834 153.163 46.5133 152.957 46.5398C152.755 46.563 152.591 46.5829 152.465 46.5994C152.16 46.6392 151.875 46.7038 151.61 46.7933C151.348 46.8795 151.136 47.0104 150.974 47.1861C150.814 47.3584 150.735 47.5937 150.735 47.892C150.735 48.2997 150.886 48.608 151.187 48.8168C151.492 49.0223 151.878 49.125 152.346 49.125ZM158.982 39.8182V50H157.808V39.8182H158.982ZM169.125 39.8182H170.358V47.0966C170.358 47.7462 170.238 48.2981 170 48.7521C169.761 49.2062 169.425 49.5509 168.991 49.7862C168.556 50.0215 168.044 50.1392 167.454 50.1392C166.898 50.1392 166.402 50.0381 165.968 49.8359C165.534 49.6304 165.192 49.3388 164.944 48.9609C164.695 48.5831 164.571 48.134 164.571 47.6136H165.784C165.784 47.902 165.855 48.1539 165.998 48.3693C166.144 48.5814 166.342 48.7472 166.594 48.8665C166.846 48.9858 167.133 49.0455 167.454 49.0455C167.809 49.0455 168.111 48.9709 168.359 48.8217C168.608 48.6726 168.797 48.4538 168.926 48.1655C169.059 47.8738 169.125 47.5175 169.125 47.0966V39.8182ZM175.772 50.1591C175.082 50.1591 174.478 49.995 173.957 49.6669C173.44 49.3388 173.036 48.8797 172.744 48.2898C172.456 47.6998 172.312 47.0104 172.312 46.2216C172.312 45.4261 172.456 44.7318 172.744 44.1385C173.036 43.5452 173.44 43.0845 173.957 42.7564C174.478 42.4283 175.082 42.2642 175.772 42.2642C176.461 42.2642 177.064 42.4283 177.581 42.7564C178.102 43.0845 178.506 43.5452 178.795 44.1385C179.086 44.7318 179.232 45.4261 179.232 46.2216C179.232 47.0104 179.086 47.6998 178.795 48.2898C178.506 48.8797 178.102 49.3388 177.581 49.6669C177.064 49.995 176.461 50.1591 175.772 50.1591ZM175.772 49.1051C176.296 49.1051 176.726 48.9709 177.064 48.7024C177.403 48.4339 177.653 48.081 177.815 47.6435C177.978 47.206 178.059 46.732 178.059 46.2216C178.059 45.7112 177.978 45.2356 177.815 44.7947C177.653 44.3539 177.403 43.9976 177.064 43.7259C176.726 43.4541 176.296 43.3182 175.772 43.3182C175.248 43.3182 174.817 43.4541 174.479 43.7259C174.141 43.9976 173.891 44.3539 173.729 44.7947C173.566 45.2356 173.485 45.7112 173.485 46.2216C173.485 46.732 173.566 47.206 173.729 47.6435C173.891 48.081 174.141 48.4339 174.479 48.7024C174.817 48.9709 175.248 49.1051 175.772 49.1051ZM185.836 46.8778V42.3636H187.009V50H185.836V48.7074H185.756C185.577 49.0952 185.299 49.425 184.921 49.6967C184.543 49.9652 184.066 50.0994 183.489 50.0994C183.012 50.0994 182.587 49.995 182.216 49.7862C181.845 49.5741 181.553 49.2559 181.341 48.8317C181.129 48.4041 181.023 47.8655 181.023 47.2159V42.3636H182.196V47.1364C182.196 47.6932 182.352 48.1373 182.664 48.4688C182.979 48.8002 183.38 48.9659 183.867 48.9659C184.158 48.9659 184.455 48.8913 184.757 48.7422C185.062 48.593 185.317 48.3643 185.522 48.0561C185.731 47.7479 185.836 47.3551 185.836 46.8778ZM189.158 50V42.3636H190.291V43.517H190.371C190.51 43.1392 190.762 42.8326 191.127 42.5973C191.491 42.362 191.902 42.2443 192.36 42.2443C192.446 42.2443 192.553 42.246 192.683 42.2493C192.812 42.2526 192.91 42.2576 192.976 42.2642V43.4574C192.936 43.4474 192.845 43.4325 192.703 43.4126C192.563 43.3894 192.416 43.3778 192.26 43.3778C191.889 43.3778 191.557 43.4557 191.266 43.6115C190.977 43.764 190.749 43.9761 190.58 44.2479C190.414 44.5163 190.331 44.8229 190.331 45.1676V50H189.158ZM195.54 45.4062V50H194.367V42.3636H195.5V43.5568H195.6C195.779 43.169 196.051 42.8575 196.415 42.6222C196.78 42.3835 197.25 42.2642 197.827 42.2642C198.344 42.2642 198.797 42.3703 199.184 42.5824C199.572 42.7912 199.874 43.1094 200.089 43.5369C200.305 43.9612 200.412 44.4981 200.412 45.1477V50H199.239V45.2273C199.239 44.6274 199.083 44.16 198.772 43.8253C198.46 43.4872 198.033 43.3182 197.489 43.3182C197.114 43.3182 196.78 43.3994 196.485 43.5618C196.193 43.7242 195.963 43.9612 195.794 44.2727C195.625 44.5843 195.54 44.9621 195.54 45.4062ZM204.803 50.179C204.32 50.179 203.88 50.0878 203.486 49.9055C203.092 49.7199 202.778 49.4531 202.546 49.1051C202.314 48.7538 202.198 48.3295 202.198 47.8324C202.198 47.3949 202.285 47.0402 202.457 46.7685C202.629 46.4934 202.86 46.2779 203.148 46.1222C203.436 45.9664 203.754 45.8504 204.102 45.7741C204.454 45.6946 204.807 45.6316 205.161 45.5852C205.625 45.5256 206.002 45.4808 206.29 45.451C206.582 45.4179 206.794 45.3632 206.926 45.2869C207.062 45.2107 207.13 45.0781 207.13 44.8892V44.8494C207.13 44.3589 206.996 43.9777 206.727 43.706C206.462 43.4342 206.06 43.2983 205.519 43.2983C204.959 43.2983 204.52 43.4209 204.202 43.6662C203.884 43.9115 203.66 44.1733 203.531 44.4517L202.417 44.054C202.616 43.59 202.881 43.2287 203.213 42.9702C203.547 42.7083 203.912 42.526 204.306 42.4233C204.704 42.3172 205.095 42.2642 205.48 42.2642C205.725 42.2642 206.007 42.294 206.325 42.3537C206.646 42.41 206.956 42.5277 207.254 42.7067C207.556 42.8857 207.806 43.1558 208.005 43.517C208.204 43.8783 208.303 44.3622 208.303 44.9688V50H207.13V48.9659H207.07C206.991 49.1316 206.858 49.3089 206.673 49.4979C206.487 49.6868 206.24 49.8475 205.932 49.9801C205.624 50.1127 205.248 50.179 204.803 50.179ZM204.982 49.125C205.446 49.125 205.838 49.0339 206.156 48.8516C206.477 48.6693 206.719 48.4339 206.882 48.1456C207.047 47.8572 207.13 47.554 207.13 47.2358V46.1619C207.08 46.2216 206.971 46.2763 206.802 46.326C206.636 46.3724 206.444 46.4138 206.225 46.4503C206.01 46.4834 205.799 46.5133 205.594 46.5398C205.392 46.563 205.228 46.5829 205.102 46.5994C204.797 46.6392 204.512 46.7038 204.247 46.7933C203.985 46.8795 203.773 47.0104 203.61 47.1861C203.451 47.3584 203.372 47.5937 203.372 47.892C203.372 48.2997 203.522 48.608 203.824 48.8168C204.129 49.0223 204.515 49.125 204.982 49.125ZM211.618 39.8182V50H210.445V39.8182H211.618ZM213.767 50V42.3636H214.941V50H213.767ZM214.364 41.0909C214.135 41.0909 213.938 41.013 213.772 40.8572C213.61 40.7015 213.529 40.5142 213.529 40.2955C213.529 40.0767 213.61 39.8894 213.772 39.7337C213.938 39.5779 214.135 39.5 214.364 39.5C214.593 39.5 214.788 39.5779 214.95 39.7337C215.116 39.8894 215.199 40.0767 215.199 40.2955C215.199 40.5142 215.116 40.7015 214.95 40.8572C214.788 41.013 214.593 41.0909 214.364 41.0909ZM222.499 44.0739L221.445 44.3722C221.378 44.1965 221.281 44.0258 221.151 43.8601C221.025 43.6911 220.853 43.5518 220.634 43.4425C220.415 43.3331 220.135 43.2784 219.794 43.2784C219.327 43.2784 218.937 43.3861 218.626 43.6016C218.317 43.8137 218.163 44.0838 218.163 44.4119C218.163 44.7036 218.269 44.9339 218.482 45.103C218.694 45.272 219.025 45.4129 219.476 45.5256L220.609 45.804C221.292 45.9697 221.801 46.2232 222.136 46.5646C222.47 46.9027 222.638 47.3385 222.638 47.8722C222.638 48.3097 222.512 48.7008 222.26 49.0455C222.011 49.3902 221.663 49.6619 221.216 49.8608C220.768 50.0597 220.248 50.1591 219.655 50.1591C218.876 50.1591 218.231 49.9901 217.721 49.652C217.21 49.3139 216.887 48.8201 216.751 48.1705L217.865 47.892C217.971 48.303 218.172 48.6113 218.467 48.8168C218.765 49.0223 219.154 49.125 219.635 49.125C220.182 49.125 220.616 49.009 220.938 48.777C221.262 48.5417 221.425 48.2599 221.425 47.9318C221.425 47.6667 221.332 47.4446 221.146 47.2656C220.961 47.0833 220.676 46.9474 220.291 46.858L219.018 46.5597C218.319 46.3939 217.805 46.1371 217.477 45.7891C217.152 45.4377 216.99 44.9986 216.99 44.4716C216.99 44.0407 217.111 43.6596 217.353 43.3281C217.598 42.9967 217.931 42.7365 218.352 42.5476C218.777 42.3587 219.257 42.2642 219.794 42.2642C220.55 42.2642 221.143 42.4299 221.574 42.7614C222.008 43.0928 222.316 43.5303 222.499 44.0739ZM224.404 50V42.3636H225.537V43.5568H225.637C225.796 43.1491 226.053 42.8326 226.407 42.6072C226.762 42.3786 227.188 42.2642 227.685 42.2642C228.189 42.2642 228.608 42.3786 228.943 42.6072C229.281 42.8326 229.545 43.1491 229.733 43.5568H229.813C230.009 43.1624 230.302 42.8492 230.693 42.6172C231.084 42.3819 231.553 42.2642 232.1 42.2642C232.783 42.2642 233.341 42.478 233.775 42.9055C234.21 43.3298 234.427 43.991 234.427 44.8892V50H233.253V44.8892C233.253 44.3258 233.099 43.9231 232.791 43.6811C232.483 43.4392 232.12 43.3182 231.702 43.3182C231.165 43.3182 230.749 43.4806 230.454 43.8054C230.159 44.1269 230.012 44.5346 230.012 45.0284V50H228.819V44.7699C228.819 44.3357 228.678 43.986 228.396 43.7209C228.114 43.4524 227.751 43.3182 227.307 43.3182C227.002 43.3182 226.717 43.3994 226.452 43.5618C226.19 43.7242 225.978 43.9496 225.816 44.2379C225.657 44.523 225.577 44.8527 225.577 45.2273V50H224.404Z" fill="white"/>
</svg>
